<svg width="200" height="200" viewBox="0 0 200 200" fill="none" xmlns="http://www.w3.org/2000/svg">
<path d="M100 0L186.603 50V150L100 200L13.3975 150V50L100 0Z" fill="#041C2F"/>
<path d="M17.3975 52.3094L100 4.6188L182.603 52.3094V147.691L100 195.381L17.3975 147.691V52.3094Z" stroke="#1173C4" stroke-width="8"/>
<path fill-rule="evenodd" clip-rule="evenodd" d="M99.1798 44H137.961H137.962C146.529 44 153.474 50.9454 153.474 59.5129V59.5141L153.475 59.5129C153.819 72.0737 155.683 73.197 158.403 74.8368C158.603 74.957 158.807 75.08 159.015 75.2104C153.893 75.6372 150.695 74.8916 147.964 71.3705C145.264 73.6511 141.773 75.0257 137.962 75.0257H137.961H99.1798C99.1796 75.0257 99.1795 75.0257 99.1793 75.0257C90.6121 75.0255 83.667 68.0802 83.667 59.5129C83.667 50.9455 90.6121 44.0002 99.1793 44C99.1795 44 99.1796 44 99.1798 44Z" fill="#1173C4"/>
<path fill-rule="evenodd" clip-rule="evenodd" d="M157.323 82H87.3232H82.3232H48.5419H48.5413C39.9741 82.0003 33.0291 88.9456 33.0291 97.5129V97.5162L33.0276 97.5129C32.6835 110.074 30.8199 111.197 28.0991 112.837L28.0988 112.837L28.0981 112.838C27.899 112.958 27.6953 113.08 27.4873 113.21C32.6094 113.637 35.8081 112.892 38.5387 109.37C41.2393 111.651 44.7297 113.026 48.5413 113.026H48.5419H87.3232V113H156.422C156.72 113.017 157.021 113.026 157.323 113.026C165.891 113.026 172.836 106.08 172.836 97.5129C172.836 88.9454 165.891 82 157.323 82C157.323 82 157.323 82 157.323 82Z" fill="#1173C4"/>
<path fill-rule="evenodd" clip-rule="evenodd" d="M87.0001 120H99.1793H125.782H137.961H137.962C146.529 120 153.474 126.945 153.474 135.513V135.514L153.475 135.513C153.819 148.074 155.683 149.197 158.403 150.837C158.603 150.957 158.807 151.08 159.015 151.21C153.893 151.637 150.695 150.892 147.964 147.371C145.264 149.651 141.773 151.026 137.962 151.026H137.961H125.782H99.1793H87.0001C87.0001 151.026 87 151.026 87 151.026C78.4326 151.026 71.4873 144.08 71.4873 135.513C71.4873 126.945 78.4326 120 87 120C87 120 87.0001 120 87.0001 120Z" fill="#1173C4"/>
<path d="M128.15 52.7283C129.189 52.7324 130.082 52.9879 130.831 53.495C131.575 54.0021 132.149 54.7366 132.551 55.6985C132.95 56.6604 133.147 57.8175 133.143 59.1697C133.143 60.518 132.944 61.667 132.545 62.6168C132.143 63.5666 131.569 64.2891 130.825 64.7841C130.076 65.2831 129.185 65.5327 128.15 65.5327C127.116 65.5327 126.226 65.2831 125.482 64.7841C124.733 64.285 124.158 63.5606 123.755 62.6108C123.353 61.665 123.154 60.518 123.158 59.1697C123.158 57.8134 123.359 56.6544 123.761 55.6925C124.16 54.7306 124.731 53.9961 125.476 53.489C126.22 52.9819 127.112 52.7283 128.15 52.7283ZM128.15 54.8956C127.442 54.8956 126.876 55.2518 126.454 55.9641C126.031 56.6765 125.822 57.745 125.826 59.1697C125.826 60.1075 125.923 60.8883 126.116 61.5121C126.305 62.1359 126.575 62.6048 126.925 62.9187C127.271 63.2326 127.679 63.3896 128.15 63.3896C128.855 63.3896 129.418 63.0374 129.841 62.3331C130.263 61.6288 130.476 60.5743 130.48 59.1697C130.48 58.2199 130.386 57.4271 130.197 56.7912C130.004 56.1593 129.732 55.6844 129.382 55.3665C129.032 55.0526 128.621 54.8956 128.15 54.8956ZM121.488 59.1818L118.107 65.0195V65.0859H122.043V66.5952H116.187V65.0618L119.562 59.1818H121.488ZM109.996 52.7283C111.034 52.7324 111.928 52.9879 112.676 53.495C113.421 54.0021 113.995 54.7366 114.397 55.6985C114.795 56.6604 114.993 57.8175 114.989 59.1697C114.989 60.518 114.789 61.667 114.391 62.6168C113.988 63.5666 113.415 64.2891 112.67 64.7841C111.922 65.2831 111.03 65.5327 109.996 65.5327C108.962 65.5327 108.072 65.2831 107.328 64.7841C106.579 64.285 106.004 63.5606 105.601 62.6108C105.199 61.665 105 60.518 105.004 59.1697C105.004 57.8134 105.205 56.6544 105.607 55.6925C106.006 54.7306 106.577 53.9961 107.322 53.489C108.066 52.9819 108.958 52.7283 109.996 52.7283ZM109.996 54.8956C109.288 54.8956 108.722 55.2518 108.3 55.9641C107.877 56.6765 107.668 57.745 107.672 59.1697C107.672 60.1075 107.768 60.8883 107.962 61.5121C108.151 62.1359 108.42 62.6048 108.771 62.9187C109.117 63.2326 109.525 63.3896 109.996 63.3896C110.7 63.3896 111.264 63.0374 111.686 62.3331C112.109 61.6288 112.322 60.5743 112.326 59.1697C112.326 58.2199 112.232 57.4271 112.043 56.7912C111.849 56.1593 111.578 55.6844 111.228 55.3665C110.877 55.0526 110.467 54.8956 109.996 54.8956Z" fill="#FFFBFC"/>
<path d="M128.15 52.7283C129.189 52.7324 130.082 52.9879 130.831 53.495C131.575 54.0021 132.149 54.7366 132.551 55.6985C132.95 56.6604 133.147 57.8175 133.143 59.1697C133.143 60.518 132.944 61.667 132.545 62.6168C132.143 63.5666 131.569 64.2891 130.825 64.7841C130.076 65.2831 129.185 65.5327 128.15 65.5327C127.116 65.5327 126.226 65.2831 125.482 64.7841C124.733 64.285 124.158 63.5606 123.755 62.6108C123.353 61.665 123.154 60.518 123.158 59.1697C123.158 57.8134 123.359 56.6544 123.761 55.6925C124.16 54.7306 124.731 53.9961 125.476 53.489C126.22 52.9819 127.112 52.7283 128.15 52.7283ZM128.15 54.8956C127.442 54.8956 126.876 55.2518 126.454 55.9641C126.031 56.6765 125.822 57.745 125.826 59.1697C125.826 60.1075 125.923 60.8883 126.116 61.5121C126.305 62.1359 126.575 62.6048 126.925 62.9187C127.271 63.2326 127.679 63.3896 128.15 63.3896C128.855 63.3896 129.418 63.0374 129.841 62.3331C130.263 61.6288 130.476 60.5743 130.48 59.1697C130.48 58.2199 130.386 57.4271 130.197 56.7912C130.004 56.1593 129.732 55.6844 129.382 55.3665C129.032 55.0526 128.621 54.8956 128.15 54.8956ZM121.488 59.1818L118.107 65.0195V65.0859H122.043V66.5952H116.187V65.0618L119.562 59.1818H121.488ZM109.996 52.7283C111.034 52.7324 111.928 52.9879 112.676 53.495C113.421 54.0021 113.995 54.7366 114.397 55.6985C114.795 56.6604 114.993 57.8175 114.989 59.1697C114.989 60.518 114.789 61.667 114.391 62.6168C113.988 63.5666 113.415 64.2891 112.67 64.7841C111.922 65.2831 111.03 65.5327 109.996 65.5327C108.962 65.5327 108.072 65.2831 107.328 64.7841C106.579 64.285 106.004 63.5606 105.601 62.6108C105.199 61.665 105 60.518 105.004 59.1697C105.004 57.8134 105.205 56.6544 105.607 55.6925C106.006 54.7306 106.577 53.9961 107.322 53.489C108.066 52.9819 108.958 52.7283 109.996 52.7283ZM109.996 54.8956C109.288 54.8956 108.722 55.2518 108.3 55.9641C107.877 56.6765 107.668 57.745 107.672 59.1697C107.672 60.1075 107.768 60.8883 107.962 61.5121C108.151 62.1359 108.42 62.6048 108.771 62.9187C109.117 63.2326 109.525 63.3896 109.996 63.3896C110.7 63.3896 111.264 63.0374 111.686 62.3331C112.109 61.6288 112.322 60.5743 112.326 59.1697C112.326 58.2199 112.232 57.4271 112.043 56.7912C111.849 56.1593 111.578 55.6844 111.228 55.3665C110.877 55.0526 110.467 54.8956 109.996 54.8956Z" fill="#FFFBFC"/>
<path d="M92.1366 129.057L88.1522 143.859H85.9366L89.921 129.057H92.1366ZM93.7731 137.044C93.7731 135.547 93.9723 134.168 94.3708 132.908C94.7732 131.649 95.387 130.482 96.212 129.407H98.6691C98.3551 129.805 98.0634 130.292 97.7937 130.868C97.5241 131.439 97.2886 132.067 97.0874 132.751C96.8862 133.436 96.7292 134.144 96.6165 134.876C96.5038 135.605 96.4475 136.327 96.4475 137.044C96.4475 137.998 96.5441 138.961 96.7372 139.935C96.9344 140.905 97.2001 141.807 97.5341 142.64C97.8722 143.473 98.2505 144.155 98.6691 144.686H96.212C95.387 143.612 94.7732 142.445 94.3708 141.185C93.9723 139.925 93.7731 138.545 93.7731 137.044ZM102.895 135.993C101.837 135.993 101.008 135.653 100.408 134.973C99.8126 134.289 99.5148 133.339 99.5148 132.124C99.5148 130.908 99.8146 129.968 100.414 129.304C101.018 128.64 101.845 128.308 102.895 128.308C103.946 128.308 104.771 128.638 105.371 129.298C105.974 129.958 106.276 130.9 106.276 132.124C106.276 133.351 105.974 134.303 105.371 134.979C104.771 135.655 103.946 135.993 102.895 135.993ZM102.895 134.442C103.346 134.442 103.706 134.253 103.976 133.874C104.25 133.496 104.387 132.912 104.387 132.124C104.387 131.343 104.25 130.763 103.976 130.385C103.706 130.007 103.346 129.817 102.895 129.817C102.453 129.817 102.095 130.007 101.821 130.385C101.547 130.763 101.41 131.343 101.41 132.124C101.41 132.908 101.543 133.492 101.809 133.874C102.078 134.253 102.441 134.442 102.895 134.442ZM112.498 142.272C111.459 142.268 110.566 142.012 109.817 141.505C109.073 140.998 108.499 140.263 108.097 139.301C107.698 138.34 107.501 137.183 107.505 135.83C107.505 134.482 107.704 133.333 108.103 132.383C108.505 131.433 109.079 130.711 109.823 130.216C110.572 129.717 111.463 129.467 112.498 129.467C113.532 129.467 114.422 129.717 115.166 130.216C115.915 130.715 116.49 131.439 116.893 132.389C117.295 133.335 117.494 134.482 117.49 135.83C117.49 137.187 117.289 138.346 116.887 139.308C116.488 140.269 115.917 141.004 115.172 141.511C114.428 142.018 113.536 142.272 112.498 142.272ZM112.498 140.104C113.206 140.104 113.772 139.748 114.194 139.036C114.617 138.324 114.826 137.255 114.822 135.83C114.822 134.893 114.725 134.112 114.532 133.488C114.343 132.864 114.073 132.395 113.723 132.081C113.377 131.767 112.969 131.61 112.498 131.61C111.793 131.61 111.23 131.963 110.807 132.667C110.385 133.371 110.172 134.426 110.167 135.83C110.167 136.78 110.262 137.573 110.451 138.209C110.644 138.841 110.916 139.316 111.266 139.634C111.616 139.947 112.027 140.104 112.498 140.104ZM122.112 135.993C121.054 135.993 120.225 135.653 119.625 134.973C119.029 134.289 118.731 133.339 118.731 132.124C118.731 130.908 119.031 129.968 119.631 129.304C120.235 128.64 121.062 128.308 122.112 128.308C123.163 128.308 123.988 128.638 124.587 129.298C125.191 129.958 125.493 130.9 125.493 132.124C125.493 133.351 125.191 134.303 124.587 134.979C123.988 135.655 123.163 135.993 122.112 135.993ZM122.112 134.442C122.563 134.442 122.923 134.253 123.193 133.874C123.466 133.496 123.603 132.912 123.603 132.124C123.603 131.343 123.466 130.763 123.193 130.385C122.923 130.007 122.563 129.817 122.112 129.817C121.669 129.817 121.311 130.007 121.038 130.385C120.764 130.763 120.627 131.343 120.627 132.124C120.627 132.908 120.76 133.492 121.025 133.874C121.295 134.253 121.657 134.442 122.112 134.442ZM131.225 137.044C131.225 138.545 131.024 139.925 130.622 141.185C130.223 142.445 129.612 143.612 128.786 144.686H126.329C126.643 144.288 126.935 143.801 127.205 143.225C127.474 142.65 127.71 142.022 127.911 141.342C128.112 140.658 128.269 139.949 128.382 139.217C128.495 138.484 128.551 137.76 128.551 137.044C128.551 136.09 128.452 135.128 128.255 134.158C128.062 133.184 127.796 132.283 127.458 131.453C127.124 130.62 126.748 129.938 126.329 129.407H128.786C129.612 130.482 130.223 131.649 130.622 132.908C131.024 134.168 131.225 135.547 131.225 137.044ZM139.062 129.057L135.077 143.859H132.862L136.846 129.057H139.062Z" fill="#FFFBFC"/>
<path d="M47.0128 94.7273V96.6591H41.2898V94.7273H47.0128ZM42.5998 104V94.0572C42.5998 93.3851 42.7306 92.8277 42.9922 92.3849C43.2578 91.9422 43.62 91.6102 44.0788 91.3888C44.5376 91.1675 45.0588 91.0568 45.6424 91.0568C46.0368 91.0568 46.397 91.087 46.723 91.1474C47.053 91.2077 47.2985 91.2621 47.4595 91.3104L47.0007 93.2422C46.9001 93.21 46.7753 93.1798 46.6264 93.1516C46.4815 93.1235 46.3326 93.1094 46.1797 93.1094C45.8014 93.1094 45.5378 93.1979 45.3888 93.375C45.2399 93.5481 45.1655 93.7915 45.1655 94.1055V104H42.5998ZM48.4139 104V94.7273H50.9071V96.3452H51.0037C51.1728 95.7696 51.4565 95.335 51.8549 95.0412C52.2534 94.7434 52.7122 94.5945 53.2314 94.5945C53.3602 94.5945 53.499 94.6025 53.6479 94.6186C53.7968 94.6347 53.9276 94.6568 54.0403 94.685V96.967C53.9196 96.9308 53.7526 96.8986 53.5393 96.8704C53.3259 96.8422 53.1308 96.8281 52.9537 96.8281C52.5754 96.8281 52.2373 96.9106 51.9395 97.0756C51.6457 97.2366 51.4122 97.462 51.2392 97.7518C51.0701 98.0415 50.9856 98.3756 50.9856 98.7539V104H48.4139ZM55.2 104V94.7273H57.7717V104H55.2ZM56.4919 93.532C56.1095 93.532 55.7815 93.4052 55.5078 93.1516C55.2382 92.8941 55.1034 92.5862 55.1034 92.228C55.1034 91.8738 55.2382 91.57 55.5078 91.3164C55.7815 91.0588 56.1095 90.93 56.4919 90.93C56.8742 90.93 57.2002 91.0588 57.4698 91.3164C57.7435 91.57 57.8803 91.8738 57.8803 92.228C57.8803 92.5862 57.7435 92.8941 57.4698 93.1516C57.2002 93.4052 56.8742 93.532 56.4919 93.532ZM63.8876 104.181C62.9338 104.181 62.1128 103.988 61.4246 103.602C60.7404 103.211 60.2132 102.66 59.8429 101.947C59.4726 101.231 59.2875 100.384 59.2875 99.4059C59.2875 98.4521 59.4726 97.6149 59.8429 96.8945C60.2132 96.1741 60.7343 95.6127 61.4065 95.2102C62.0826 94.8078 62.8754 94.6065 63.785 94.6065C64.3968 94.6065 64.9662 94.7051 65.4935 94.9023C66.0247 95.0955 66.4875 95.3873 66.882 95.7777C67.2804 96.1681 67.5903 96.6591 67.8116 97.2507C68.033 97.8383 68.1437 98.5265 68.1437 99.3153V100.022H60.3138V98.4279H65.7229C65.7229 98.0576 65.6424 97.7296 65.4814 97.4439C65.3204 97.1581 65.097 96.9348 64.8113 96.7738C64.5296 96.6088 64.2016 96.5263 63.8273 96.5263C63.4369 96.5263 63.0908 96.6168 62.7889 96.7979C62.4911 96.975 62.2577 97.2145 62.0886 97.5163C61.9196 97.8142 61.8331 98.1462 61.829 98.5124V100.028C61.829 100.487 61.9136 100.883 62.0826 101.217C62.2557 101.551 62.4991 101.809 62.8131 101.99C63.127 102.171 63.4993 102.261 63.9299 102.261C64.2156 102.261 64.4772 102.221 64.7147 102.141C64.9522 102.06 65.1554 101.939 65.3244 101.778C65.4935 101.617 65.6223 101.42 65.7108 101.187L68.0893 101.344C67.9686 101.915 67.7211 102.414 67.3468 102.841C66.9765 103.263 66.4976 103.594 65.91 103.831C65.3264 104.064 64.6523 104.181 63.8876 104.181ZM72.2237 98.6392V104H69.6519V94.7273H72.1029V96.3633H72.2116C72.4169 95.824 72.761 95.3974 73.2439 95.0835C73.7269 94.7655 74.3125 94.6065 75.0007 94.6065C75.6446 94.6065 76.206 94.7474 76.685 95.0291C77.1639 95.3108 77.5362 95.7133 77.8018 96.2365C78.0674 96.7557 78.2002 97.3755 78.2002 98.0959V104H75.6285V98.5547C75.6325 97.9872 75.4876 97.5445 75.1938 97.2266C74.9 96.9046 74.4956 96.7436 73.9804 96.7436C73.6343 96.7436 73.3284 96.8181 73.0628 96.967C72.8012 97.1159 72.596 97.3332 72.447 97.619C72.3022 97.9007 72.2277 98.2408 72.2237 98.6392ZM83.474 104.151C82.7697 104.151 82.1318 103.97 81.5603 103.608C80.9929 103.241 80.5421 102.704 80.2081 101.996C79.878 101.283 79.713 100.41 79.713 99.3757C79.713 98.3132 79.8841 97.4298 80.2262 96.7255C80.5683 96.0172 81.023 95.4879 81.5905 95.1378C82.162 94.7836 82.7878 94.6065 83.468 94.6065C83.9872 94.6065 84.4198 94.6951 84.7659 94.8722C85.1161 95.0452 85.3978 95.2625 85.6111 95.5241C85.8284 95.7817 85.9935 96.0353 86.1061 96.2848H86.1846V91.6364H88.7503V104H86.2148V102.515H86.1061C85.9854 102.772 85.8144 103.028 85.593 103.282C85.3757 103.531 85.0919 103.738 84.7418 103.903C84.3957 104.068 83.9731 104.151 83.474 104.151ZM84.289 102.104C84.7036 102.104 85.0537 101.992 85.3395 101.766C85.6292 101.537 85.8506 101.217 86.0035 100.806C86.1605 100.396 86.239 99.915 86.239 99.3636C86.239 98.8123 86.1625 98.3333 86.0096 97.9268C85.8566 97.5204 85.6353 97.2064 85.3455 96.9851C85.0557 96.7637 84.7036 96.6531 84.289 96.6531C83.8664 96.6531 83.5103 96.7678 83.2205 96.9972C82.9307 97.2266 82.7114 97.5445 82.5625 97.951C82.4136 98.3575 82.3391 98.8284 82.3391 99.3636C82.3391 99.9029 82.4136 100.38 82.5625 100.794C82.7154 101.205 82.9347 101.527 83.2205 101.76C83.5103 101.99 83.8664 102.104 84.289 102.104ZM93.2665 91.6364V104H90.6948V91.6364H93.2665ZM96.7443 107.477C96.4183 107.477 96.1124 107.451 95.8267 107.399C95.545 107.35 95.3115 107.288 95.1264 107.212L95.706 105.292C96.0078 105.384 96.2795 105.435 96.5209 105.443C96.7664 105.451 96.9777 105.395 97.1548 105.274C97.3359 105.153 97.4828 104.948 97.5955 104.658L97.7464 104.266L94.4201 94.7273H97.1246L99.0444 101.537H99.141L101.079 94.7273H103.801L100.197 105.002C100.024 105.501 99.7889 105.936 99.4911 106.306C99.1973 106.68 98.825 106.968 98.3743 107.169C97.9235 107.375 97.3802 107.477 96.7443 107.477ZM107.519 98.6392V104H104.948V94.7273H107.399V96.3633H107.507C107.712 95.824 108.057 95.3974 108.54 95.0835C109.022 94.7655 109.608 94.6065 110.296 94.6065C110.94 94.6065 111.502 94.7474 111.981 95.0291C112.459 95.3108 112.832 95.7133 113.097 96.2365C113.363 96.7557 113.496 97.3755 113.496 98.0959V104H110.924V98.5547C110.928 97.9872 110.783 97.5445 110.489 97.2266C110.196 96.9046 109.791 96.7436 109.276 96.7436C108.93 96.7436 108.624 96.8181 108.358 96.967C108.097 97.1159 107.892 97.3332 107.743 97.619C107.598 97.9007 107.523 98.2408 107.519 98.6392ZM121.299 100.052V94.7273H123.871V104H121.402V102.316H121.305C121.096 102.859 120.748 103.296 120.261 103.626C119.778 103.956 119.188 104.121 118.492 104.121C117.872 104.121 117.327 103.98 116.856 103.698C116.385 103.416 116.017 103.016 115.751 102.497C115.49 101.978 115.357 101.356 115.353 100.631V94.7273H117.924V100.173C117.928 100.72 118.075 101.153 118.365 101.471C118.655 101.788 119.043 101.947 119.53 101.947C119.84 101.947 120.13 101.877 120.4 101.736C120.669 101.591 120.887 101.378 121.052 101.096C121.221 100.815 121.303 100.466 121.299 100.052ZM125.758 104V94.7273H128.209V96.3633H128.318C128.511 95.82 128.833 95.3913 129.283 95.0774C129.734 94.7635 130.274 94.6065 130.901 94.6065C131.537 94.6065 132.079 94.7655 132.525 95.0835C132.972 95.3974 133.27 95.824 133.419 96.3633H133.515C133.705 95.832 134.047 95.4074 134.542 95.0895C135.041 94.7675 135.63 94.6065 136.31 94.6065C137.176 94.6065 137.878 94.8822 138.417 95.4336C138.961 95.9809 139.232 96.7577 139.232 97.7638V104H136.667V98.271C136.667 97.7558 136.53 97.3694 136.256 97.1119C135.982 96.8543 135.64 96.7255 135.23 96.7255C134.763 96.7255 134.399 96.8744 134.137 97.1722C133.876 97.466 133.745 97.8544 133.745 98.3374V104H131.252V98.2166C131.252 97.7618 131.121 97.3996 130.859 97.13C130.602 96.8603 130.261 96.7255 129.839 96.7255C129.553 96.7255 129.296 96.7979 129.066 96.9428C128.841 97.0837 128.662 97.2829 128.529 97.5405C128.396 97.794 128.33 98.0919 128.33 98.4339V104H125.758ZM141.142 104V91.6364H143.714V96.2848H143.792C143.905 96.0353 144.068 95.7817 144.281 95.5241C144.499 95.2625 144.78 95.0452 145.126 94.8722C145.477 94.6951 145.911 94.6065 146.43 94.6065C147.107 94.6065 147.73 94.7836 148.302 95.1378C148.873 95.4879 149.33 96.0172 149.672 96.7255C150.014 97.4298 150.185 98.3132 150.185 99.3757C150.185 100.41 150.018 101.283 149.684 101.996C149.354 102.704 148.904 103.241 148.332 103.608C147.765 103.97 147.129 104.151 146.424 104.151C145.925 104.151 145.501 104.068 145.151 103.903C144.804 103.738 144.521 103.531 144.299 103.282C144.078 103.028 143.909 102.772 143.792 102.515H143.678V104H141.142ZM143.659 99.3636C143.659 99.915 143.736 100.396 143.889 100.806C144.042 101.217 144.263 101.537 144.553 101.766C144.843 101.992 145.195 102.104 145.609 102.104C146.028 102.104 146.382 101.99 146.672 101.76C146.962 101.527 147.181 101.205 147.33 100.794C147.483 100.38 147.559 99.9029 147.559 99.3636C147.559 98.8284 147.485 98.3575 147.336 97.951C147.187 97.5445 146.968 97.2266 146.678 96.9972C146.388 96.7678 146.032 96.6531 145.609 96.6531C145.191 96.6531 144.837 96.7637 144.547 96.9851C144.261 97.2064 144.042 97.5204 143.889 97.9268C143.736 98.3333 143.659 98.8123 143.659 99.3636ZM155.957 104.181C155.003 104.181 154.182 103.988 153.494 103.602C152.81 103.211 152.283 102.66 151.913 101.947C151.542 101.231 151.357 100.384 151.357 99.4059C151.357 98.4521 151.542 97.6149 151.913 96.8945C152.283 96.1741 152.804 95.6127 153.476 95.2102C154.152 94.8078 154.945 94.6065 155.855 94.6065C156.466 94.6065 157.036 94.7051 157.563 94.9023C158.094 95.0955 158.557 95.3873 158.952 95.7777C159.35 96.1681 159.66 96.6591 159.881 97.2507C160.103 97.8383 160.213 98.5265 160.213 99.3153V100.022H152.383V98.4279H157.792C157.792 98.0576 157.712 97.7296 157.551 97.4439C157.39 97.1581 157.167 96.9348 156.881 96.7738C156.599 96.6088 156.271 96.5263 155.897 96.5263C155.506 96.5263 155.16 96.6168 154.859 96.7979C154.561 96.975 154.327 97.2145 154.158 97.5163C153.989 97.8142 153.903 98.1462 153.899 98.5124V100.028C153.899 100.487 153.983 100.883 154.152 101.217C154.325 101.551 154.569 101.809 154.883 101.99C155.197 102.171 155.569 102.261 156 102.261C156.285 102.261 156.547 102.221 156.784 102.141C157.022 102.06 157.225 101.939 157.394 101.778C157.563 101.617 157.692 101.42 157.78 101.187L160.159 101.344C160.038 101.915 159.791 102.414 159.416 102.841C159.046 103.263 158.567 103.594 157.98 103.831C157.396 104.064 156.722 104.181 155.957 104.181ZM161.722 104V94.7273H164.215V96.3452H164.311C164.48 95.7696 164.764 95.335 165.163 95.0412C165.561 94.7434 166.02 94.5945 166.539 94.5945C166.668 94.5945 166.807 94.6025 166.956 94.6186C167.104 94.6347 167.235 94.6568 167.348 94.685V96.967C167.227 96.9308 167.06 96.8986 166.847 96.8704C166.634 96.8422 166.438 96.8281 166.261 96.8281C165.883 96.8281 165.545 96.9106 165.247 97.0756C164.953 97.2366 164.72 97.462 164.547 97.7518C164.378 98.0415 164.293 98.3756 164.293 98.7539V104H161.722Z" fill="#FFFBFC"/>
</svg>
